<svg viewBox="0 0 31 31" fill="none" xmlns="http://www.w3.org/2000/svg">
  <path fill-rule="evenodd" clip-rule="evenodd" d="M8 19H6V28H8H13V26H8V19Z" />
  <path fill-rule="evenodd" clip-rule="evenodd"
    d="M16 3H15V4H14V5H13V6H12V7H11V8H10V9H9V10H8V11H7V12H11V13H12V17H19V13H20V12H24V11H23V10H22V9H21V8H20V7H19V6H18V5H17V4H16V3Z" />
  <path fill-rule="evenodd" clip-rule="evenodd" d="M26 24H24V25H23V26V27H24V28H26V27H27V26V25H26V24Z" />
  <path fill-rule="evenodd" clip-rule="evenodd"
    d="M17 19H15V26H16V27H17V28H19H20V27H21V26H22V19H20V26H19V27H18V26H17V19Z" />
</svg>
