<?xml version="1.0" standalone="no"?>
<!DOCTYPE svg PUBLIC "-//W3C//DTD SVG 20010904//EN"
 "http://www.w3.org/TR/2001/REC-SVG-20010904/DTD/svg10.dtd">
<svg version="1.0" xmlns="http://www.w3.org/2000/svg"
 width="512.000000pt" height="512.000000pt" viewBox="0 0 512.000000 512.000000"
 preserveAspectRatio="xMidYMid meet">
<metadata>
Created by potrace 1.14, written by Peter Selinger 2001-2017
</metadata>
<g transform="translate(0.000000,512.000000) scale(0.100000,-0.100000)"
fill="#000000" stroke="none">
<path d="M160 2720 l0 -1920 80 0 80 0 0 -80 0 -80 2160 0 2160 0 0 80 0 80
80 0 80 0 0 1520 0 1520 -400 0 -400 0 0 80 0 80 -80 0 -80 0 0 80 0 80 -560
0 -560 0 0 240 0 240 -1280 0 -1280 0 0 -1920z m800 1360 l0 -240 -240 0 -240
0 0 240 0 240 240 0 240 0 0 -240z m1120 160 l0 -80 -240 0 -240 0 0 80 0 80
240 0 240 0 0 -80z m160 -1680 l0 -800 -800 0 -800 0 0 80 0 80 -80 0 -80 0 0
720 0 720 880 0 880 0 0 -800z m2240 560 l0 -240 -720 0 -720 0 0 240 0 240
720 0 720 0 0 -240z m0 -560 l0 -160 -720 0 -720 0 0 160 0 160 720 0 720 0 0
-160z m-480 -560 l0 -80 -160 0 -160 0 0 80 0 80 160 0 160 0 0 -80z m480 0
l0 -80 -160 0 -160 0 0 80 0 80 160 0 160 0 0 -80z m-3840 -640 l0 -80 -80 0
-80 0 0 80 0 80 80 0 80 0 0 -80z m640 -240 l0 -160 -240 0 -240 0 0 160 0
160 240 0 240 0 0 -160z"/>
</g>
</svg>
